<svg width="1440" height="293" viewBox="0 0 1440 293" fill="none" xmlns="http://www.w3.org/2000/svg">
<path d="M875.432 204.038L876.164 204.377L876.142 203.571L875.272 171.665C875.256 171.049 875.484 170.451 875.908 170.004C876.331 169.557 876.915 169.296 877.531 169.279L877.61 169.277C878.226 169.26 878.824 169.489 879.271 169.912C879.718 170.336 879.979 170.92 879.996 171.536L881.078 211.231L881.078 211.256L881.082 211.281C881.749 216.509 877.574 222.158 870.855 224.283L870.855 224.283C863.477 226.619 856.194 223.721 854.417 218.104C852.639 212.486 856.928 205.926 864.308 203.589C868.316 202.322 872.332 202.602 875.432 204.038Z" fill="white" stroke="black"/>
<path d="M1438 2C1426.63 4.40092 1414.43 23.0338 1408.9 32.2896C1395.86 54.0852 1379.4 77.653 1360.76 95.0517C1319.87 133.213 1269.25 152.76 1214.03 141.987C1161.27 131.694 1113.74 96.5202 1057.92 106.922C996.64 118.34 945.145 154.329 884.261 166.546C848.919 173.638 813.764 179.585 778.599 168.729C764.904 164.501 752.102 158.986 739.571 152.083C723.556 143.262 705.08 141.79 687.08 140.622C605.84 135.352 525.626 171.987 448.83 193.561C398.686 207.648 345.766 220.529 293.533 222.759C252.766 224.5 208.703 216.537 169.241 207.751C129.237 198.844 89.0949 190.706 49.0284 182.1C35.7471 179.248 16.9809 169.274 16.9809 169.274C10.4882 166.268 6.15046 161.952 0 158.25" stroke="white" stroke-width="3" stroke-linecap="round"/>
<path d="M1438 32C1426.63 34.4009 1414.43 53.0338 1408.9 62.2896C1395.86 84.0852 1379.4 107.653 1360.76 125.052C1319.87 163.213 1269.25 182.76 1214.03 171.987C1161.27 161.694 1113.74 126.52 1057.92 136.922C996.64 148.34 945.145 184.329 884.261 196.546C848.919 203.638 813.764 209.585 778.599 198.729C764.904 194.501 752.102 188.986 739.571 182.083C723.556 173.262 705.08 171.79 687.08 170.622C605.84 165.352 525.626 201.987 448.83 223.561C398.686 237.648 345.766 250.529 293.533 252.759C252.766 254.5 208.703 246.537 169.241 237.751C129.237 228.844 89.0949 220.706 49.0284 212.1C35.7471 209.248 16.9809 199.274 16.9809 199.274C10.4882 196.268 6.15046 191.952 0 188.25" stroke="white" stroke-width="3" stroke-linecap="round"/>
<path d="M1438 62C1426.63 64.4009 1414.43 83.0338 1408.9 92.2896C1395.86 114.085 1379.4 137.653 1360.76 155.052C1319.87 193.213 1269.25 212.76 1214.03 201.987C1161.27 191.694 1113.74 156.52 1057.92 166.922C996.64 178.34 945.145 214.329 884.261 226.546C848.919 233.638 813.764 239.585 778.599 228.729C764.904 224.501 752.102 218.986 739.571 212.083C723.556 203.262 705.08 201.79 687.08 200.622C605.84 195.352 525.626 231.987 448.83 253.561C398.686 267.648 345.766 280.529 293.533 282.759C252.766 284.5 208.703 276.537 169.241 267.751C129.237 258.844 89.0949 250.706 49.0284 242.1C35.7471 239.248 16.9809 229.274 16.9809 229.274C10.4882 226.268 6.15046 221.952 0 218.25" stroke="white" stroke-width="3" stroke-linecap="round"/>
<g clip-path="url(#clip0_86_60)">
<path d="M1313.42 105.059L1346.57 160.127L1346.37 160.437L1346.67 160.72C1347.06 161.095 1347.4 161.497 1347.67 161.949C1348.85 163.914 1348.83 166.411 1347.75 168.896C1346.67 171.381 1344.55 173.811 1341.64 175.569C1338.71 177.332 1335.57 178.071 1332.87 177.861C1330.18 177.651 1327.96 176.501 1326.78 174.528C1325.59 172.562 1325.61 170.066 1326.69 167.581C1327.77 165.096 1329.89 162.666 1332.81 160.908C1334.43 159.93 1336.13 159.294 1337.78 158.935L1338.46 158.787L1338.1 158.188L1318.14 125.027L1317.79 124.459L1317.34 124.943L1291.63 152.503L1291.37 152.779L1291.57 153.102L1314.81 191.703L1314.45 191.918L1314.93 192.37C1315.35 192.76 1315.71 193.204 1316 193.689C1317.18 195.654 1317.16 198.15 1316.08 200.636C1315.01 203.12 1312.89 205.551 1309.97 207.308C1307.04 209.071 1303.9 209.81 1301.21 209.6C1298.51 209.39 1296.3 208.24 1295.11 206.267C1293.93 204.302 1293.95 201.805 1295.03 199.32C1296.1 196.835 1298.22 194.405 1301.14 192.647C1302.77 191.669 1304.46 191.033 1306.11 190.674L1306.8 190.526L1306.43 189.928L1278.12 142.895L1313.42 105.059Z" fill="white" stroke="black"/>
</g>
<g clip-path="url(#clip1_86_60)">
<path d="M681.104 126.066L698.561 184.977L698.301 185.22L698.517 185.568C698.79 186.008 699 186.459 699.143 186.941C699.764 189.036 699.147 191.335 697.555 193.374C695.964 195.411 693.422 197.15 690.3 198.075C687.17 199.003 684.092 198.933 681.651 198.093C679.209 197.252 677.443 195.66 676.819 193.556C676.198 191.461 676.815 189.162 678.407 187.123C679.998 185.086 682.54 183.347 685.662 182.422C687.398 181.907 689.119 181.726 690.731 181.79L691.429 181.818L691.231 181.148L680.711 145.648L680.523 145.012L679.964 145.368L649.535 164.709L649.217 164.911L649.324 165.273L661.562 206.574L661.172 206.69L661.528 207.249C661.821 207.709 662.045 208.204 662.199 208.721C662.819 210.816 662.203 213.115 660.611 215.154C659.02 217.191 656.478 218.93 653.356 219.855C650.226 220.783 647.148 220.713 644.707 219.873C642.265 219.032 640.498 217.44 639.875 215.336C639.254 213.241 639.871 210.942 641.463 208.903C643.054 206.866 645.596 205.127 648.717 204.202C650.454 203.687 652.174 203.506 653.787 203.57L654.485 203.598L654.286 202.928L639.372 152.595L681.104 126.066Z" fill="white" stroke="black"/>
</g>
<g clip-path="url(#clip2_86_60)">
<path d="M79.3337 175.936C68.3285 172.335 59.6641 176.488 55.7348 182.271C51.8055 188.054 52.1315 195.034 53.3128 199.328L53.3872 199.307C53.9193 200.98 54.84 202.504 56.0739 203.752C57.3078 205.001 58.8199 205.94 60.4865 206.492C63.2872 207.415 66.34 207.188 68.9732 205.861C71.6064 204.533 73.6043 202.214 74.5275 199.413C75.4507 196.612 75.2235 193.559 73.8958 190.926C72.5682 188.293 70.2489 186.295 67.4482 185.372C65.8744 184.855 64.205 184.696 62.5619 184.907C60.9189 185.118 59.3437 185.693 57.9516 186.591C58.3836 185.611 58.8944 184.661 59.4937 183.779C62.811 178.897 68.3252 175.636 78.3645 178.909C88.2683 182.138 90.4557 194.562 85.3406 209.164C80.7311 222.323 76.3885 229.677 66.118 234.165C55.8474 238.652 44.0453 241.219 30.6416 241.95C28.217 242.082 29.3743 245.145 30.8039 245.073C44.3273 244.399 57.5957 244.163 68.4967 239.4C79.3977 234.637 89.0671 230.401 95.2012 212.112C100.583 196.067 97.0721 181.74 79.3337 175.936ZM114.069 194.886C112.669 194.424 111.143 194.538 109.826 195.201C108.509 195.865 107.51 197.025 107.049 198.425C106.587 199.826 106.701 201.352 107.365 202.669C108.028 203.985 109.188 204.984 110.588 205.446C111.989 205.907 113.515 205.794 114.832 205.13C116.148 204.466 117.147 203.306 117.609 201.906C118.071 200.506 117.957 198.979 117.293 197.663C116.629 196.346 115.47 195.347 114.069 194.886ZM107.108 216.006C105.707 215.544 104.181 215.658 102.864 216.322C101.548 216.985 100.549 218.145 100.087 219.545C99.8585 220.239 99.7688 220.97 99.823 221.699C99.8772 222.427 100.074 223.137 100.403 223.789C100.732 224.441 101.185 225.022 101.739 225.498C102.292 225.975 102.933 226.337 103.627 226.566C105.027 227.028 106.553 226.914 107.87 226.25C109.187 225.586 110.186 224.427 110.647 223.026C111.109 221.626 110.995 220.1 110.331 218.783C109.668 217.466 108.508 216.467 107.108 216.006Z" fill="white"/>
</g>
<path d="M442.147 192.425L445.116 187.287C444.141 182.509 443.879 173.713 447.56 172.473C449.105 172.113 451.086 172.962 451.902 175.142C454.155 181.163 451.511 184.722 448.632 189.366L443.494 198.258L443.484 198.251C438.931 206.732 432.932 217.319 433.959 225.622C435.664 237.77 446.765 247.794 458.925 244.142L457.238 240.336C448.706 241.305 439.481 234.506 440.307 225.524C442.134 210.948 451.903 200.949 457.846 186.57C459.522 182.513 458.492 175.435 457 172.021C455.509 168.607 451.489 163.319 447.481 163.857C439.585 164.742 437.519 180.933 442.147 192.425L442.147 192.425ZM451.945 207.739L449.362 211.944C449.633 212.526 449.956 213.243 450.485 214.504C444.167 221.098 446.072 231.193 452.768 235.203C454.198 236.09 455.957 233.765 454.52 232.741C451.023 228.982 449.451 223.704 452.664 219.843C457.358 230.495 464.486 244.302 468.64 255.835C468.914 256.593 467.768 258.533 467.066 258.889C465.86 254.024 460.938 251.057 456.072 252.264C451.207 253.47 448.24 258.393 449.446 263.258C450.553 267.705 454.775 270.355 459.349 270.077C469.024 269.489 475.693 261.831 472.471 254.395C467.309 241.867 461.02 228.944 456.1 217.467C458.689 216.532 462.742 217.028 464.825 218.307C467.221 219.886 468.898 222.522 469.254 224.874C469.595 227.118 468.765 229.902 467.156 232.497L469.097 236.872C472.23 233.154 475.183 228.307 474.511 223.877C473.952 220.193 471.206 215.27 467.674 213.352C463.112 210.874 458.223 211.358 454.136 212.825C452.981 210.057 452.486 209.016 451.945 207.739Z" fill="white"/>
<path d="M1073.93 105.5L1073.93 105.5C1073.28 105.516 1072.66 105.786 1072.2 106.253C1071.75 106.72 1071.5 107.346 1071.5 107.998L1071.5 108L1071.5 142.605V143.471L1070.75 143.038C1068.56 141.772 1066.01 141.265 1063.5 141.596C1060.99 141.926 1058.66 143.075 1056.87 144.865C1055.08 146.655 1053.93 148.986 1053.6 151.495C1053.27 154.005 1053.77 156.554 1055.04 158.746C1056.31 160.939 1058.26 162.652 1060.6 163.621C1062.94 164.59 1065.53 164.761 1067.97 164.106C1070.42 163.451 1072.58 162.008 1074.12 160C1075.66 157.992 1076.5 155.531 1076.5 153C1076.5 153 1076.5 153 1076.5 153V123.54V122.95L1077.08 123.047L1091.59 125.465C1091.95 125.524 1092.31 125.505 1092.66 125.409C1093.01 125.312 1093.34 125.141 1093.62 124.906C1093.89 124.672 1094.12 124.38 1094.27 124.05C1094.42 123.721 1094.5 123.363 1094.5 123L1073.93 105.5ZM1073.93 105.5C1074.11 105.495 1074.28 105.51 1074.46 105.542L1074.46 105.542L1074.47 105.544L1092.41 108.535L1092.41 108.535M1073.93 105.5L1092.41 108.535M1092.41 108.535C1092.99 108.632 1093.52 108.933 1093.91 109.385C1094.29 109.836 1094.5 110.408 1094.5 111C1094.5 111 1094.5 111 1094.5 111M1092.41 108.535L1094.5 111M1094.5 111V123V111Z" fill="white" stroke="black"/>
<path d="M239.364 221.188L239.363 221.188C238.724 221.061 238.061 221.19 237.516 221.546C236.971 221.903 236.588 222.459 236.448 223.095L236.448 223.098L228.892 256.868L228.703 257.713L228.065 257.126C226.202 255.412 223.826 254.361 221.304 254.136C218.783 253.91 216.258 254.523 214.12 255.878C211.982 257.234 210.352 259.258 209.481 261.635C208.61 264.012 208.548 266.609 209.305 269.025C210.061 271.441 211.593 273.54 213.664 274.996C215.734 276.453 218.227 277.185 220.757 277.08C223.286 276.975 225.71 276.038 227.652 274.415C229.595 272.792 230.948 270.574 231.501 268.103C231.501 268.103 231.501 268.103 231.501 268.103L237.934 239.354L238.063 238.778L238.61 239L252.24 244.528C252.576 244.664 252.938 244.725 253.3 244.708C253.663 244.69 254.017 244.593 254.339 244.425C254.66 244.256 254.941 244.02 255.162 243.732C255.383 243.444 255.538 243.112 255.618 242.758L239.364 221.188ZM239.364 221.188C239.537 221.222 239.707 221.275 239.87 221.345L239.87 221.345L239.879 221.349L256.736 228.186L256.736 228.186M239.364 221.188L256.736 228.186M256.736 228.186C257.285 228.408 257.737 228.817 258.012 229.341C258.287 229.865 258.367 230.47 258.238 231.047C258.238 231.047 258.238 231.047 258.238 231.048M256.736 228.186L258.238 231.048M258.238 231.048L255.618 242.757L258.238 231.048Z" fill="white" stroke="black"/>
<defs>
<clipPath id="clip0_86_60">
<rect width="87" height="87" fill="white" transform="translate(1246 144.874) rotate(-31.0504)"/>
</clipPath>
<clipPath id="clip1_86_60">
<rect width="83.2196" height="83.2196" fill="white" transform="translate(609.132 146.702) rotate(-16.5057)"/>
</clipPath>
<clipPath id="clip2_86_60">
<rect width="88.9525" height="88.9525" fill="white" transform="translate(46.8469 161) rotate(18.2434)"/>
</clipPath>
</defs>
</svg>
